<svg width="58" height="52" viewBox="0 0 58 52" fill="none" xmlns="http://www.w3.org/2000/svg">
<path d="M24 48C24 48.7911 23.7654 49.5645 23.3259 50.2223C22.8864 50.8801 22.2616 51.3928 21.5307 51.6955C20.7998 51.9983 19.9956 52.0775 19.2196 51.9231C18.4437 51.7688 17.731 51.3878 17.1716 50.8284C16.6122 50.269 16.2312 49.5563 16.0769 48.7804C15.9225 48.0044 16.0017 47.2002 16.3045 46.4693C16.6072 45.7384 17.1199 45.1137 17.7777 44.6741C18.4355 44.2346 19.2089 44 20 44C21.0609 44 22.0783 44.4214 22.8284 45.1716C23.5786 45.9217 24 46.9391 24 48ZM46 44C45.2089 44 44.4355 44.2346 43.7777 44.6741C43.1199 45.1137 42.6072 45.7384 42.3045 46.4693C42.0017 47.2002 41.9225 48.0044 42.0769 48.7804C42.2312 49.5563 42.6122 50.269 43.1716 50.8284C43.731 51.3878 44.4437 51.7688 45.2196 51.9231C45.9956 52.0775 46.7998 51.9983 47.5307 51.6955C48.2616 51.3928 48.8864 50.8801 49.3259 50.2223C49.7654 49.5645 50 48.7911 50 48C50 46.9391 49.5786 45.9217 48.8284 45.1716C48.0783 44.4214 47.0609 44 46 44ZM57.9125 12.5875L50.78 35.765C50.4064 36.9937 49.6468 38.0692 48.6137 38.8321C47.5806 39.5949 46.3292 40.0045 45.045 40H21.0175C19.7149 39.9951 18.449 39.5684 17.4093 38.7838C16.3695 37.9991 15.612 36.8988 15.25 35.6475L6.205 4H2C1.46957 4 0.960859 3.78929 0.585787 3.41421C0.210714 3.03914 0 2.53043 0 2C0 1.46957 0.210714 0.960859 0.585787 0.585786C0.960859 0.210714 1.46957 0 2 0H6.205C7.07352 0.00288113 7.91776 0.28697 8.61133 0.809744C9.30491 1.33252 9.81053 2.06586 10.0525 2.9L12.08 10H56C56.313 9.99989 56.6216 10.0732 56.9011 10.2141C57.1806 10.355 57.4231 10.5595 57.6091 10.8112C57.7951 11.0629 57.9195 11.3547 57.9722 11.6633C58.0249 11.9718 58.0044 12.2883 57.9125 12.5875ZM53.2925 14H13.2225L19.095 34.55C19.2145 34.9677 19.4667 35.3352 19.8136 35.5968C20.1604 35.8584 20.583 35.9999 21.0175 36H45.045C45.473 36.0002 45.8897 35.863 46.2339 35.6088C46.5782 35.3545 46.8318 34.9966 46.9575 34.5875L53.2925 14Z" fill="#B3B3B3"/>
</svg>
